# xmcd CD database file
#
# Track frame offsets:
#	150
#	15221
#	26566
#	40047
#	52665
#	67725
#	82414
#	91950
#	104698
#	116914
#	131226
#	141961
#	153268
#	166841
#	180450
#	193104
#	207302
#	220364
#	231942
#	244554
#
# Disc length: 3412 seconds
#
# Revision: 0
# Processed by: cddbd v1.5.2PL0 Copyright (c) Steve Scherf et al.
# Submitted via: CDex 1.51
#
DISCID=110d5214
DTITLE=Peggy Lee - The Definitive Collection 1942-1953 - CD1
DYEAR=2005
DGENRE=Jazz
TTITLE0=Baubles, Bangles, And Beads
TTITLE1=I've Got You Under My Skin
TTITLE2=Just One Of Those Things
TTITLE3=Watermelon Weather (with Bing Crosby)
TTITLE4=Lover
TTITLE5=You Go To My Head
TTITLE6=Show Me The Way To Get Out Of This World
TTITLE7=The Old Master Painter (with Mel Torme)
TTITLE8=Riders In The Sky
TTITLE9=Bali Hai
TTITLE10=Similau
TTITLE11=Blum Blum, I Wonder Who I Am
TTITLE12=Buble Loo, Buble Loo
TTITLE13=Baby Don't Be Mad At Me
TTITLE14=Caramba! It's The Samba
TTITLE15=Don't Smoke In Bed
TTITLE16=Talking To Myself About You
TTITLE17=Laroo, Laroo, Lili Bolero
TTITLE18=For Every Man There's A Woman
TTITLE19=All Dressed Up With A Broken Heart
EXTD=YEAR: 2005
EXTT0=
EXTT1=
EXTT2=
EXTT3=
EXTT4=
EXTT5=
EXTT6=
EXTT7=
EXTT8=
EXTT9=
EXTT10=
EXTT11=
EXTT12=
EXTT13=
EXTT14=
EXTT15=
EXTT16=
EXTT17=
EXTT18=
EXTT19=
PLAYORDER=
